<?xml version="1.0" standalone="no"?><!DOCTYPE svg PUBLIC "-//W3C//DTD SVG 1.1//EN" "http://www.w3.org/Graphics/SVG/1.1/DTD/svg11.dtd"><svg t="1711525134446" class="icon" viewBox="0 0 1122 1024" version="1.1" xmlns="http://www.w3.org/2000/svg" p-id="12449" width="280.5" height="256" xmlns:xlink="http://www.w3.org/1999/xlink"><path d="M275.08954 322.769574S227.404893 219.956329 290.268007 201.964472l-116.98166-31.41772s88.303535 114.214391 1.369798 154.063056l100.433395-1.840234z" fill="#F7E2CD" p-id="12450"></path><path d="M285.047094 318.152848c0 0.004612 0 0 0 0-7.393219-15.985587-23.982993-63.130617-12.171369-88.916946 3.860339-8.430944 10.534068-13.900912 20.403993-16.723525a10.976831 10.976831 0 0 0-0.170649-21.146543L176.12741 159.948114a10.972219 10.972219 0 0 0-11.530285 17.309264c0.465824 0.599575 46.457824 60.916802 35.794616 104.109249-3.629734 14.703419-13.545779 25.578784-30.310813 33.267178a10.972219 10.972219 0 1 0 4.768926 20.948222l100.438007-1.835621a10.981443 10.981443 0 0 0 9.759233-15.593558zM179.22675 334.590423c22.936043-10.511008 37.228984-26.662631 42.482182-47.998271 13.167585-53.500522-37.579505-119.951861-39.747198-122.751414 2.877959 3.726588 3.062444 8.873707 0.447375 12.789392a10.962995 10.962995 0 0 1-11.97766 4.51526l116.986272 31.41772a10.962995 10.962995 0 0 1-8.126545-10.501783 10.981443 10.981443 0 0 1 7.955896-10.644759c-16.18852 4.630562-27.737254 14.297553-34.332576 28.719633-18.416171 40.272979 10.958383 104.542788 12.222102 107.259324a10.976831 10.976831 0 0 1 9.754621-15.588946l-100.438007 1.835622a10.972219 10.972219 0 0 1 4.773538 20.948222z" fill="#6E6E96" p-id="12451"></path><path d="M209.94343 244.395921c-11.590242-35.545563-21.769178-51.305156-29.49447-62.775484l2.186143-12.452707 107.628292 32.796742c-39.212193 11.225885-37.099845 51.111447-28.682737 82.796671l-0.004612 0.004612c0.004612-0.004612-24.61024-101.669441-51.632616-40.369834z" fill="#6E6E96" p-id="12452"></path><path d="M246.669693 130.785717m-83.479263 0a83.479264 83.479264 0 1 0 166.958527 0 83.479264 83.479264 0 1 0-166.958527 0Z" fill="#F0F0FF" p-id="12453"></path><path d="M246.669693 58.27406c39.977804 0 72.507044 32.52924 72.507045 72.511657 0 39.977804-32.52924 72.502432-72.507045 72.502432s-72.507044-32.524628-72.507044-72.502432 32.524628-72.511656 72.507044-72.511657zM152.218211 130.790329c0 52.079991 42.371491 94.451483 94.451482 94.451483s94.451483-42.371491 94.451483-94.451483-42.371491-94.456095-94.451483-94.456095-94.451483 42.376103-94.451482 94.456095z" fill="#6E6E96" p-id="12454"></path><path d="M222.635967 137.007459m-17.968796 0a17.968796 17.968796 0 1 0 35.937592 0 17.968796 17.968796 0 1 0-35.937592 0Z" fill="#6E6E96" p-id="12455"></path><path d="M368.526358 383.335856S361.280726 270.232984 426.38994 276.205671l-97.684575-71.62613s25.195979 96.965085-18.342377 96.965085l58.16337 81.79123z" fill="#F7E2CD" p-id="12456"></path><path d="M379.475516 382.634814c0 0.004612 0 0 0 0-1.102295-17.576766 0.488884-67.525961 20.837531-87.298094 6.650668-6.45696 14.851007-9.145822 25.071452-8.20495a10.976831 10.976831 0 0 0 7.490073-19.776745l-97.684575-71.621519a10.967607 10.967607 0 0 0-17.110942 11.604079c6.037257 23.309624 11.613303 65.464346 0.871689 79.337585-2.112348 2.734984-4.685908 3.901848-8.592368 3.901849-4.109394 0-7.872879 2.292221-9.750009 5.945015a10.958383 10.958383 0 0 0 0.811732 11.387309l58.158757 81.786618a10.967607 10.967607 0 0 0 19.89666-7.061147zM310.362988 312.516845c10.695492 0 19.670666-4.293878 25.956977-12.420423 20.763737-26.847116 4.884229-91.04313 3.007099-98.284149a10.967607 10.967607 0 0 1-17.110943 11.604078l97.684574 71.626131a10.981443 10.981443 0 0 1-3.772709-12.743271 10.953771 10.953771 0 0 1 11.262783-7.033474c-16.765034-1.535834-31.030303 3.288437-42.399164 14.343675-31.740569 30.882715-27.612727 101.420387-27.419018 104.413649a10.976831 10.976831 0 0 1 19.892047-7.065759L319.305877 295.175296a10.976831 10.976831 0 0 1-8.942889 17.341549z" fill="#6E6E96" p-id="12457"></path><path d="M332.072208 285.111664c8.504738-22.705437 0.793284-67.041689-2.250711-80.527511l8.11732 2.103124L426.38994 276.210284c-40.618888-3.7312-53.071596 34.217274-56.696718 66.797247l-0.004612 0.004612S379.443231 237.740641 332.072208 285.111664z" fill="#6E6E96" p-id="12458"></path><path d="M411.506648 194.073145m-83.479264 0a83.479264 83.479264 0 1 0 166.958527 0 83.479264 83.479264 0 1 0-166.958527 0Z" fill="#F0F0FF" p-id="12459"></path><path d="M411.506648 121.570713c39.977804 0 72.507044 32.524628 72.507044 72.507044 0 39.977804-32.524628 72.502432-72.507044 72.502433s-72.502432-32.524628-72.502432-72.502433c0-39.982416 32.524628-72.507044 72.502432-72.507044zM317.059777 194.077757c0 52.079991 42.371491 94.451483 94.451483 94.451483s94.451483-42.376103 94.451483-94.451483-42.371491-94.456095-94.456095-94.456094c-52.079991 0-94.446871 42.376103-94.446871 94.456094z" fill="#6E6E96" p-id="12460"></path><path d="M386.850286 191.176738m-17.973408 0a17.973408 17.973408 0 1 0 35.946817 0 17.973408 17.973408 0 1 0-35.946817 0Z" fill="#6E6E96" p-id="12461"></path><path d="M367.543977 374.678918C296.466688 129.595791-171.801247 478.742046 129.512773 865.832162c101.729399 130.698087 353.131121 147.191006 498.735561 147.191007 249.736749 0 452.185493-35.112024 452.185493-78.428999 0-43.321587-203.177458-59.477822-452.185493-78.428999-354.136562-26.957806-248.639066-439.880373-260.704357-481.486253z" fill="#F7E2CD" p-id="12462"></path><path d="M129.512773 865.82755c101.729399 130.702699 353.126509 147.195618 498.735561 147.195619 249.736749 0 452.185493-35.116636 452.185493-78.428999 0-43.326199-203.177458-59.477822-452.185493-78.428999-354.141174-26.967031-248.643678-439.889598-260.704357-481.486253-71.077289-245.087738-539.336 104.063128-238.031204 491.148632z m238.031204-491.153245c6.341657 35.596296-63.255144 400.97258 111.055093 470.938349 117.701149 47.246496 569.969661 38.843224 569.969661 75.910785 0 37.0445-438.515188 17.968796-569.969661 17.968796-76.644111 0-208.965661-14.117681-262.516917-125.956833-158.592152-331.209743 114.052967-648.569308 151.461824-438.861097z" fill="#EDD9C4" p-id="12463"></path><path d="M129.512773 865.82755c101.729399 130.702699 353.126509 147.195618 498.735561 147.195619 189.899182 0 352.43008-20.302526 419.421035-49.091342-82.865852 17.968796-210.303174 29.485245-353.251036 29.485245-145.609051 0-410.561165-2.951753-512.295175-133.64984C-12.646417 609.541599 131.721976 300.368537 260.95341 293.390408c-147.726012 9.560912-358.937772 280.176702-131.440637 572.437142z" fill="#DECCB8" p-id="12464"></path><path d="M378.082658 371.621086c-15.035492-51.85861-48.763881-83.354736-94.963428-88.68634-74.610168-8.610817-166.903182 52.965517-219.444384 146.434619-36.292725 64.551148-103.366699 236.961193 57.176377 443.205708 77.105322 99.063597 252.559363 151.424927 507.397111 151.424927 121.400065 0 235.614456-8.214175 321.611933-23.134364 141.536555-24.545671 141.536555-55.954167 141.536555-66.266854 0-49.280438-133.802039-64.362051-462.318308-89.364321-81.763557-6.230966-144.682016-34.410983-187.016611-83.765214-83.184088-96.978921-71.247937-252.20423-64.827874-335.600476 2.347566-30.52297 3.362231-45.581523 0.848629-54.247685z m249.340107 495.497856c186.546175 14.191475 442.043455 33.649984 442.043455 67.484452 0 23.54023-151.531006 67.452167-441.20405 67.452168-247.81811 0-417.290239-49.43725-490.083234-142.952474-152.448816-195.858033-89.502684-358.245955-55.363817-418.973661C131.205419 354.025871 214.389507 297.093936 280.601016 304.736209c37.381184 4.316939 63.803985 29.559039 76.404281 73.00054 1.512773 5.220913-0.096854 26.182971-1.660361 46.4486-6.659893 86.56938-19.052643 247.684358 70.058011 351.576839 46.277952 53.929449 114.242064 84.669189 202.019818 91.356754z" fill="#6E6E96" p-id="12465"></path><path d="M448.31593 669.642057a279.623248 279.4526 90 1 0 558.905199 0 279.623248 279.4526 90 1 0-558.905199 0Z" fill="#8B5C29" p-id="12466"></path><path d="M761.206356 632.846611l-0.493496-0.618023c8.739956 10.257342 23.051346 19.513854 28.221525 19.642993a2.905632 2.905632 0 0 0-0.631859 0.096855c0.659532-0.225994 3.182359-1.605016 6.973516-5.391561a6.023421 6.023421 0 0 0-1.236046 2.384463c0.650308-3.652794-2.974814-20.002738-19.80903-37.570281-19.412388-20.251793-44.433106-30.49991-66.930998-27.442079-69.772061 9.482506-93.252333 60.889129-91.232228 90.697222 4.326163 63.960797 73.881454 142.897128 163.826902 142.897129 122.626887 0 176.191979-84.982813 180.301373-164.514107 5.285483-102.227507-60.617014-219.684214-217.774799-235.992649-111.816092-11.604079-209.371527 32.072641-251.802977 135.190285-36.421864 88.538753-31.454618 230.36587 65.519692 308.476634 30.633661 24.67481 123.383274 64.998523 98.726912 95.659856-24.656361 30.65211-157.38839-15.874896-188.031275-40.549706-150.571686-124.914496-176.293446-251.604655-107.90502-417.829856 66.778799-162.332577 217.258242-251.867546 392.712284-233.65892 238.483191 24.743992 354.233416 212.461644 345.304363 385.102295-9.108925 176.450258-139.484164 299.667495-317.045941 299.667495-176.404136 0-280.817785-136.449393-289.48856-264.83681-8.592368-127.220553 70.869744-224.282492 197.744388-241.522574 102.222895-13.896299 192.528087 53.14539 228.894606 126.551796 32.068029 64.744856 23.996829 132.971859-21.0543 178.050661-41.421396 41.458293-85.088891 48.36724-114.398876 46.84063-72.377905-3.7312-121.741361-60.201924-130.905632-71.473931-24.799337-30.546031-20.15955-75.426512 10.358808-100.239685 30.513746-24.808561 75.366555-20.168775 100.156668 10.381868z" fill="#D59758" p-id="12467"></path><path d="M769.683422 625.868483l-0.290564-0.355133-3.293049-4.049436c-0.170648-0.207545-5.391561-0.207545-5.391561-0.207545h-23.775448l15.432134 18.093323c8.251072 9.685439 25.463481 23.226606 36.301949 23.489497l0.272115-21.944439c-0.641084 0-2.319893 0.073794-4.109394 0.664145l7.010413 20.805246c3.113177-1.056174 7.093431-3.911073 11.207437-8.029691l-15.625842-15.409073c-2.02933 2.084676-3.717364 5.386949-4.192412 8.209563l21.621591 3.745037c1.351349-7.637661-3.606673-27.174576-22.691601-47.075848-21.819911-22.770007-50.364285-34.258783-76.325875-30.721291-77.686448 10.552517-103.006954 68.356142-100.710121 102.319749 4.884229 72.285663 80.670486 153.131409 174.780672 153.131409 125.887652 0 186.767557-87.860772 191.259756-174.923648 5.543761-107.240875-63.315101-230.425828-227.603214-247.472201-122.912838-12.757107-221.261557 40.29604-263.084207 141.91936-39.811768 96.7806-29.236191 242.251288 68.780456 321.21068 8.652326 6.968904 21.543185 14.860231 35.181206 23.203546 24.273556 14.864843 60.949087 37.312002 63.476525 51.853998 0.276727 1.572731 0.101467 3.053219-1.600404 5.174791-2.241487 2.790329-7.619212 4.773538-15.14157 5.585271-44.663712 4.828883-135.277916-29.951068-157.45296-47.809174-141.739488-117.581234-173.069578-238.769142-104.639643-405.105034 64.855547-157.655893 211.01344-244.608078 381.431053-226.920621 231.684935 24.047562 344.142111 206.156884 335.485172 373.627355-8.795301 170.311534-134.664505 289.257954-306.09217 289.257955-169.75808 0-270.205311-131.177747-278.539401-254.60253-8.177278-121.10489 67.47984-213.499369 188.271106-229.913883 97.098836-13.19987 182.953338 50.650236 217.58109 120.551436 29.909559 60.391021 22.636256 123.784528-18.978849 165.436529-38.589558 38.617231-78.982452 45.05113-106.069398 43.635211-67.742731-3.49137-114.306634-56.78896-122.949735-67.438331-20.948222-25.790942-17.014089-63.845494 8.753792-84.807553a59.749937 59.749937 0 0 1 44.184053-13.167585 59.819119 59.819119 0 0 1 40.545094 21.944438l16.981804-13.905523z m0.050733 0.064569a81.606745 81.606745 0 0 0-55.32692-29.941844 81.569848 81.569848 0 0 0-60.284942 17.968796c-35.158145 28.590495-40.517422 80.481389-11.949987 115.67182 9.671603 11.908478 61.825388 71.547725 138.84308 75.518754 31.542248 1.632688 78.433611-5.719021 122.723741-50.046049 48.500991-48.524051 57.365474-121.593774 23.134364-190.692465-38.105286-76.920837-132.851944-147.149497-240.208121-132.556769-132.939574 18.065651-216.20668 119.799661-207.203834 253.145101s117.359853 275.066479 300.437718 275.06648c183.691277 0 318.577163-127.506504 328.008936-310.067813 9.187331-177.815443-109.842107-371.132202-355.132778-396.586459-180.495082-18.734407-335.291464 73.387958-403.998127 240.40183-72.73765 176.80539-39.530429 305.538717 111.045869 430.443989 25.832451 20.805246 122.405506 58.191042 173.70605 52.642669 13.739488-1.485101 23.793896-6.078766 29.881887-13.65647 5.419234-6.729074 7.531582-14.57428 6.124887-22.682376-4.224696-24.319677-39.507369-45.927431-73.6324-66.811084-13.033834-7.974345-25.32973-15.505927-32.879761-21.593918-89.73329-72.276439-99.045148-206.318308-62.258927-295.756422 38.474255-93.492163 126.141318-140.314344 240.521746-128.447376 150.041293 15.570497 212.968976 127.298959 207.941772 224.51771-3.666631 71.086513-50.216697 154.099953-169.338378 154.099953-81.048679 0-148.731452-71.317119-152.873131-132.667459-1.761828-26.039996 18.891219-70.542284 81.768169-79.079307 19.034195-2.592008 40.53587 6.438511 57.526898 24.153641 13.513494 14.099233 16.75581 26.685692 16.824992 29.051706 0 0-0.009224-0.373581 0.096855-0.991604l21.62159 3.745037c-0.290563 1.724931-0.793284 2.490542-1.729543 3.449861l-15.62123-15.418297c-2.402911 2.402911-3.763485 3.186971-3.772709 3.196195a6.364717 6.364717 0 0 1 1.033113-0.442763l7.005802 20.800634a8.467841 8.467841 0 0 1-2.831838 0.470436l0.26289-21.944439a4.040212 4.040212 0 0 1 0.844017 0.096855c-2.873347-0.701041-13.771772-7.430116-20.980507-15.874897l-8.347926 18.093323-8.458617-3.975642c0.050733 0.055345 0.47966 0.594963 0.47966 0.594963l16.99564-13.8963z" fill="#6E6E96" p-id="12468"></path><path d="M575.817821 951.871149c-6.609159-2.2461-135.965121-29.909559-201.558606-167.977804-37.002991-77.857097-37.879292-165.408857-2.619681-260.229309 51.272871-137.865312 141.850178-199.787554 208.813462-227.474075 93.925702-38.820164 201.826109-36.223543 296.042374 7.144165 151.415703 69.689043 222.562173 217.544193 190.328109 395.479552-14.454365 79.794184-81.228552 150.49328-174.264116 184.507621-101.79858 37.215148-208.195438 21.732281-284.553598-41.453681-95.982705-79.383706-99.192736-208.688935-57.642201-293.565669 26.920909-54.994847 123.148056-119.836558 249.174072-73.535545 111.567038 40.978633 129.886355 107.679026 130.868734 143.791878 1.443592 53.062372-32.50618 103.74028-84.470868 126.104421-51.471192 22.16582-106.46604 11.101358-147.121824-29.577487-16.045545-16.054769-16.045545-42.094765 0-58.135697a41.080099 41.080099 0 0 1 58.0988 0c21.109646 21.11887 42.399164 18.296256 56.553742 12.203654 20.689943-8.910604 35.338018-29.236191 34.816848-48.339567-0.705653-26.039996-28.788816-51.134508-77.045364-68.858862-68.282348-25.080676-121.404677-11.82546-149.607754 37.30739-30.075595 52.402839-23.816957 137.528628 38.727921 189.26271 53.643498 44.368537 129.900191 54.681224 203.998415 27.585054 64.749469-23.678593 112.484848-71.543112 121.616834-121.944294 25.491154-140.734047-26.920909-252.314921-143.819551-306.115231-72.424026-33.340972-158.536807-35.51789-230.338198-5.843549-74.342666 30.730516-130.767268 93.021727-163.162757 180.158398-27.151515 73.00054-27.289879 138.870753-0.41509 195.779627 50.30894 106.539834 179.309768 168.475913 180.60116 168.923288l-0.092242-0.027673c21.483227 7.28714 27.520484 11.959212 20.233344 33.470111-2.33373 6.885886-30.080208 4.934962-46.614636 4.934962l-26.547329-3.574388z" fill="#DEA66C" p-id="12469"></path><path d="M725.642345 475.679602c-110.017367 0-199.75527 79.623536-204.648723 179.521926a176.943754 176.943754 0 0 1-0.23983-8.592369c0-103.878644 91.725723-188.10507 204.883941-188.105069s204.888553 84.221814 204.888552 188.105069c0 2.882571 0.133751-2.83645 0 0-4.888841-99.898389-94.861961-170.929557-204.88394-170.929557zM893.615537 793.172918s-204.551868 125.961446-281.698699-85.840666c0 0 65.381328 171.685944 281.698699 85.840666z" fill="#E4BC96" p-id="12470"></path><path d="M1013.728822 612.636328v0.041509c-0.110691-11.696321-6.521529-286.592152-310.533636-286.592153-253.066695 0-289.410154 275.255576-290.821461 286.965734a21.944438 21.944438 0 1 1-43.570641-5.285483c0.405866-3.306886 10.354196-81.87886 55.751234-161.377869 61.345728-107.420747 157.697402-164.195871 278.640868-164.195871 181.422117 0 268.383526 90.069974 309.389832 165.644075 43.958059 80.98411 45.028069 161.114979 45.046517 164.491046a21.944438 21.944438 0 1 1-43.902713 0.309012z" fill="#FFFFFF" p-id="12471"></path><path d="M364.864339 696.609087c0 13.739488 15.524376 33.654596 29.259251 33.654596s20.482398-19.910496 20.482399-33.654596c0-13.734876-11.133643-38.040716-24.868519-38.040716-13.739488 0-24.873131 24.305841-24.873131 38.040716zM391.19951 770.495154c0 9.29341 16.313047 25.606457 25.601845 25.606457 9.29341 0 8.048139-16.313047 8.048139-25.606457a16.829604 16.829604 0 0 0-33.649984 0z" fill="#FFFFFF" p-id="12472"></path><path d="M184.170936 730.992397m-32.921269 0a32.92127 32.92127 0 1 0 65.842539 0 32.92127 32.92127 0 1 0-65.842539 0Z" fill="#EDD9C4" p-id="12473"></path><path d="M187.902137 771.399128m-25.675639 0a25.675639 25.675639 0 1 0 51.351277 0 25.675639 25.675639 0 1 0-51.351277 0Z" fill="#EDD9C4" p-id="12474"></path><path d="M177.040608 700.815335m-24.693258 0a24.693258 24.693258 0 1 0 49.386517 0 24.693258 24.693258 0 1 0-49.386517 0Z" fill="#EDD9C4" p-id="12475"></path><path d="M250.285591 796.55821m-11.248946 0a11.248946 11.248946 0 1 0 22.497892 0 11.248946 11.248946 0 1 0-22.497892 0Z" fill="#EDD9C4" p-id="12476"></path><path d="M228.064425 658.568371m-10.972219 0a10.972219 10.972219 0 1 0 21.944439 0 10.972219 10.972219 0 1 0-21.944439 0Z" fill="#EDD9C4" p-id="12477"></path><path d="M800.8567 904.366375m-30.725903 0a30.725904 30.725904 0 1 0 61.451807 0 30.725904 30.725904 0 1 0-61.451807 0Z" fill="#D59758" p-id="12478"></path><path d="M758.162361 913.143228m-25.334342 0a25.334342 25.334342 0 1 0 50.668684 0 25.334342 25.334342 0 1 0-50.668684 0Z" fill="#D59758" p-id="12479"></path><path d="M841.45714 901.073325m-20.846756 0a20.846755 20.846755 0 1 0 41.693511 0 20.846755 20.846755 0 1 0-41.693511 0Z" fill="#D59758" p-id="12480"></path><path d="M876.573776 854.989082m-14.265269 0a14.265269 14.265269 0 1 0 28.530537 0 14.265269 14.265269 0 1 0-28.530537 0Z" fill="#D59758" p-id="12481"></path><path d="M785.470688 673.958995m-16.801931 0a16.801931 16.801931 0 1 0 33.603862 0 16.801931 16.801931 0 1 0-33.603862 0Z" fill="#D59758" p-id="12482"></path><path d="M802.106583 664.743992m-15.741145 0a15.741145 15.741145 0 1 0 31.48229 0 15.741145 15.741145 0 1 0-31.48229 0Z" fill="#D59758" p-id="12483"></path><path d="M758.309948 655.524376m-10.238893 0a10.238893 10.238893 0 1 0 20.477787 0 10.238893 10.238893 0 1 0-20.477787 0Z" fill="#D59758" p-id="12484"></path><path d="M770.439808 669.831153m-17.862717 0a17.862718 17.862718 0 1 0 35.725435 0 17.862718 17.862718 0 1 0-35.725435 0Z" fill="#D59758" p-id="12485"></path><path d="M844.750189 668.811876m-7.314813 0a7.314813 7.314813 0 1 0 14.629626 0 7.314813 7.314813 0 1 0-14.629626 0Z" fill="#D59758" p-id="12486"></path><path d="M452.646705 815.121969m-7.314813 0a7.314813 7.314813 0 1 0 14.629626 0 7.314813 7.314813 0 1 0-14.629626 0Z" fill="#FFFFFF" p-id="12487"></path><path d="M145.364609 679.258314a21.557021 19.905884 90 1 0 39.811768 0 21.557021 19.905884 90 1 0-39.811768 0Z" fill="#EDD9C4" p-id="12488"></path><path d="M193.653443 633.732137m-4.054048 0a4.054048 4.054048 0 1 0 8.108096 0 4.054048 4.054048 0 1 0-8.108096 0Z" fill="#EDD9C4" p-id="12489"></path><path d="M224.43008 696.57219m-4.238533 0a4.238533 4.238533 0 1 0 8.477065 0 4.238533 4.238533 0 1 0-8.477065 0Z" fill="#EDD9C4" p-id="12490"></path><path d="M229.77552 757.581234m-6.267863 0a6.267863 6.267863 0 1 0 12.535726 0 6.267863 6.267863 0 1 0-12.535726 0Z" fill="#EDD9C4" p-id="12491"></path><path d="M854.163514 93.824235m-27.797211 0a27.797211 27.797211 0 1 0 55.594422 0 27.797211 27.797211 0 1 0-55.594422 0Z" fill="#D59758" p-id="12492"></path><path d="M677.127518 180.139949m-11.705546 0a11.705545 11.705545 0 1 0 23.411091 0 11.705545 11.705545 0 1 0-23.411091 0Z" fill="#D59758" p-id="12493"></path><path d="M1023.884697 275.24174m-7.314813 0a7.314813 7.314813 0 1 0 14.629626 0 7.314813 7.314813 0 1 0-14.629626 0Z" fill="#D59758" p-id="12494"></path><path d="M114.850863 468.447807c11.498 21.224949 48.450258 55.064029 106.018665 31.242461a10.972219 10.972219 0 1 0-8.389436-20.270241c-53.394444 22.096638-77.358988-19.684503-78.355205-21.474003l-0.216769-0.387418a12.028393 12.028393 0 0 0-0.276727-0.424314l0.516557 0.857853a10.976831 10.976831 0 0 0-19.297085 10.455662z" fill="#6E6E96" p-id="12495"></path><path d="M401.89039 146.120996c42.408388 0 76.787086 34.38331 76.787086 76.787086 0 1.678809-0.147588 3.320722-0.253666 4.971859a76.408893 76.408893 0 0 0 9.030519-36.108241c0-42.408388-34.378698-76.782474-76.787086-76.782474-40.729579 0-73.95986 31.735956-76.538032 71.810615 12.927756-24.19515 38.409685-40.678846 67.761179-40.678845z" fill="#6E6E96" p-id="12496"></path><path d="M236.564552 84.673801c42.408388 0 76.782474 34.38331 76.782474 76.782474 0 1.678809-0.142976 3.325334-0.249055 4.971859a76.44579 76.44579 0 0 0 9.03052-36.108241c0-42.403776-34.374086-76.782474-76.782474-76.782474-40.734191 0-73.964472 31.735956-76.538032 71.815228 12.913919-24.199762 38.400461-40.678846 67.756567-40.678846z" fill="#6E6E96" p-id="12497"></path></svg>